<mxfile host="Electron" agent="Mozilla/5.0 (Macintosh; Intel Mac OS X 10_15_7) AppleWebKit/537.36 (KHTML, like Gecko) draw.io/24.7.8 Chrome/128.0.6613.36 Electron/32.0.1 Safari/537.36" version="24.7.8">
  <diagram name="Seite-1" id="cs-HnYV6ttRgWYvj2bpH">
    <mxGraphModel dx="989" dy="609" grid="1" gridSize="10" guides="1" tooltips="1" connect="1" arrows="1" fold="1" page="1" pageScale="1" pageWidth="827" pageHeight="1169" math="0" shadow="0">
      <root>
        <mxCell id="0" />
        <mxCell id="1" parent="0" />
        <mxCell id="mzYx-1K4IcST2xf1G7qC-1" value="Editor" style="rounded=0;whiteSpace=wrap;html=1;" vertex="1" parent="1">
          <mxGeometry x="320" y="610" width="130" height="80" as="geometry" />
        </mxCell>
        <mxCell id="mzYx-1K4IcST2xf1G7qC-16" value="Aufgabe&lt;div&gt;{&lt;div&gt;Aufgabe1,&lt;/div&gt;&lt;div&gt;Aufgabe2,&lt;/div&gt;&lt;div&gt;Aufgabe3,&lt;/div&gt;&lt;div&gt;Aufgabe4&lt;br&gt;&lt;div&gt;&lt;span style=&quot;background-color: initial;&quot;&gt;}&lt;/span&gt;&lt;/div&gt;&lt;/div&gt;&lt;/div&gt;" style="rounded=0;whiteSpace=wrap;html=1;" vertex="1" parent="1">
          <mxGeometry x="140" y="740" width="390" height="190" as="geometry" />
        </mxCell>
      </root>
    </mxGraphModel>
  </diagram>
</mxfile>
